<?xml version="1.0" encoding="utf-8"?>
<!-- Generator: Adobe Illustrator 21.0.0, SVG Export Plug-In . SVG Version: 6.00 Build 0)  -->
<svg version="1.1" xmlns="http://www.w3.org/2000/svg" xmlns:xlink="http://www.w3.org/1999/xlink" x="0px" y="0px"
	 viewBox="0 0 731 568" style="enable-background:new 0 0 731 568;" xml:space="preserve">
<style type="text/css">
	.st0{fill:#22CC76;}
	.st1{display:none;fill:#1F1F1F;}
	.st2{display:none;}
	.st3{display:inline;}
	.st4{fill:#FFFFFF;}
	.st5{display:inline;fill:#FFFFFF;}
</style>
<g id="Layer_1">
	<g id="Layer_1_1_">
		<g>
			<path class="st0" d="M83.6,45.1c45-0.1,89.9,0,134.9-0.1c8.5,0.1,17-0.2,25.5,0.1c-1.9,1.8-4.1,3.5-6.2,5.1
				c-27.7,21-50.1,48.8-64.7,80.4c-14.7,31.9-21.4,67.4-19.3,102.4c1.6,22,6.1,43.8,14.3,64.3c13.4,34.4,36,65.1,64.7,88.3
				c3.6,3.2,7.8,5.6,11.2,9c-53.5,0.4-106.9,0.1-160.4,0.1C83.5,278.3,83.5,161.7,83.6,45.1z"/>
			<g>
				<path class="st0" d="M352,45.6c24.2-2,48.9,1.2,71.9,9.1c43.8,15,81,48.3,100.6,90.3c18.5,38.7,21.9,84.3,9.4,125.3
					c-11,37.1-35,70.2-66.7,92.4c-30.5,21.8-68.3,32.9-105.7,31.9c-18.5-0.8-36.9-4-54.3-10.4c-33-11.8-62.1-33.9-82.5-62.4
					c-24.3-33.4-35.9-75.8-32.3-116.9c2.6-30,13-59.3,30.1-84.1c17.9-26.1,42.9-47.2,71.8-60.2C312.4,52.3,332.1,47.5,352,45.6z"/>
			</g>
			<path class="st0" d="M489.1,45.2c53.4-0.3,106.9-0.1,160.3-0.1c0.1,116.6,0.1,233.2,0,349.8c-53.5,0-106.9,0.2-160.4-0.1
				c8.8-7.2,18.1-14,26.1-22.1c28.8-28,49.6-64.3,58.7-103.4c7.7-32.2,7.8-66.3,0-98.5c-9.1-38.9-29.6-75-58.2-102.9
				C507.5,59.5,498.1,52.5,489.1,45.2z"/>
			<path class="st1" d="M348.9,168.4c5.9-0.9,11.5-3.8,17.5-3.5c6.4-0.3,13.5,1.2,17.8,6.2c6.1,5.2,6.9,15.2,1.9,21.5
				c-3.8,6.6-11.1,10.1-18.1,11.9c-6.5,1.2-12.7,3.7-19.3,4.6c-3.5-12.7-6.4-25.6-10.2-38.2C342,170.1,345.5,169.6,348.9,168.4z"/>
			<path class="st1" d="M353.3,228.1c9.6-3.3,19.6-5.2,29.4-7.9c4.8-0.3,9.9-0.8,14.4,1.1c5.5,1.7,11.3,4.7,13.7,10.3
				c3.8,7,1.1,16-4.6,21.1c-7.3,8.4-18.7,10.5-29,13c-4.5,1.2-9,2.3-13.5,3.4C360.9,255.3,357,241.7,353.3,228.1z"/>
			<path class="st0" d="M659.7,437.1c4.9-0.1,9.8-0.1,14.8-0.1c0,9.4-0.1,18.9,0,28.3c3.3-2.5,6.7-5.4,11-6
				c5.9-0.9,12.8,0.1,16.9,4.7c3.8,4.3,4.8,10.3,4.8,15.9c0,11.7-0.1,23.3,0,35c-4.9,0.1-9.8,0.1-14.8,0c0-12,0.1-24,0-36.1
				c0.1-3.4-1.8-6.9-5.3-7.6c-4.5-1.1-10.8,0-12.5,4.8c-0.4,12.9,0,25.9-0.2,38.8c-4.9,0-9.8,0.1-14.7-0.1
				C659.8,489,659.8,463,659.7,437.1z"/>
			<path class="st0" d="M499.6,469.1c7.4-11.4,24.7-13.3,35.4-5.6c5.3,3.9,7.9,10.4,8,16.9c-4.5,0.2-9,0.2-13.5,0
				c-0.8-2.7-1.5-5.8-3.9-7.5c-4.8-3.9-13.2-1.7-14.9,4.5c-1.8,6.6-1.8,13.8,0,20.4c1.8,6.6,10.8,8.4,15.7,4.3
				c1.8-1.5,2.4-3.8,3.2-5.9c4.5-0.1,8.9-0.1,13.4-0.1c-0.2,5.3-2.4,10.6-6.4,14.1c-7.3,6.5-18.3,7.4-27.1,3.9
				c-8-3.2-13.1-11.3-14.2-19.7C494.2,485.8,494.7,476.5,499.6,469.1z"/>
			<g>
				<path class="st0" d="M558.3,462.9c7.2-4.2,16.1-4.8,24-2.7c6.2,1.7,11.6,6.7,12.8,13.2c1.9,13.8-1.7,28.2,2.7,41.6
					c-5,0.1-10,0.1-15-0.1c-0.5-1.4-0.9-2.8-1.3-4.2c-2.9,1.9-5.7,4.1-9.1,4.9c-7.2,1.6-15.4-0.4-20-6.4c-3.6-4.3-4-10.6-2.4-15.8
					c1.5-4.7,5.5-8.3,10-10c6.7-2.8,14-2.4,21-2.4c-0.1-2.9,0.2-6.2-1.8-8.6c-2.5-2.9-6.9-2.8-10.2-1.9c-2.6,0.7-3.5,3.4-4.6,5.5
					c-4.8,0-9.5,0.1-14.2,0C550.4,470.5,553.6,465.5,558.3,462.9z M567.1,491.5c-4.4,2.7-4.8,10.4,0.2,12.6c4.7,1.7,10.6,0,13.3-4.3
					c0.7-3.4,0.3-6.8,0.3-10.2C576.2,489.6,571.2,489,567.1,491.5z"/>
			</g>
			<path class="st0" d="M621.4,459.7c8.7-1.6,18.9-0.6,25.3,6.1c3,2.8,3.9,6.9,4.6,10.9c-4.8,0.1-9.7,0.1-14.5,0.1
				c-1-2.5-1.8-5.5-4.6-6.5c-3.3-1-7.5-1.1-10.3,1.3c-2.6,2.1-2.2,6.8,1,8.1c7.3,3.4,16.2,2.9,22.8,8.2c6.3,4.6,7.3,14.8,2.2,20.7
				c-5,5.8-13.1,7.8-20.5,7.6c-7.7-0.1-15.9-3-20.3-9.6c-1.9-2.5-2.5-5.7-2.9-8.7c4.4-0.2,8.8-0.4,13.1,0c1.7,1.8,1.9,4.8,4.2,6.2
				c3.6,2.2,8.4,2.3,12.3,0.7c3.4-1.5,4.1-6.8,0.7-8.7c-6-3.4-13.4-3.1-19.4-6.5c-5.1-2.4-9.4-7.4-9.1-13.3
				C605.9,467.5,613.6,461.1,621.4,459.7z"/>
		</g>
		<g class="st2">
			<g class="st3">
				<path class="st4" d="M341.4,115.3c6-1.4,11.9-2.9,17.9-4.3c1.7,10.6,5.3,20.8,7.5,31.3c3.9-0.9,7.6-2.5,11.7-2.2
					c3.7,0.1,7.4,0,11,0c7.1,0.6,13.5,4.1,19.6,7.4c2.4,1.9,4.5,4.2,6.6,6.4c3.4,4.1,5.1,9.3,6.6,14.4c0.3,4.2,0.3,8.5,0,12.7
					c-1.9,6.7-5.7,12.6-10,18c16.7,2,33.4,13.8,36.2,31.1c2.9,10.9-1.4,22.4-7.9,31.2c-4.4,4.6-8.7,9.6-14.5,12.5
					c-7,4.4-15,6.5-22.9,8.6c1.8,10.6,5.7,20.7,7.4,31.4c-6.1,1.3-12,3.1-18,4.4c0.2-4.1-1.7-7.8-2.5-11.7c-1.6-6.6-3.6-13-4.9-19.6
					c-5.1,1.7-10.5,2.4-15.5,4.3c2.7,10.3,5.2,20.6,8,30.9c-6,1.6-12.1,3-18,4.9c-1.1-5.6-3-11-4.3-16.6c-1.4-4.8-2-9.8-3.9-14.5
					c-12.7,3-25.2,6.5-37.9,9.5c-0.2-4.2,0.4-8.5-0.6-12.6c-0.7-3.4-0.3-6.9-0.4-10.4c4.5-0.7,8.8-1.9,13.2-3.1
					c2.1-0.4,3.3-2.2,4.8-3.5c0.6-9.1-3.7-17.6-5.3-26.5c-4.6-16.9-8.8-33.9-13.1-50.8c-1.4-5.1-2.1-10.5-4.9-15.1
					c-1.7-1.4-3.8-2.5-5.8-3.4c-6.4,0.2-12.4,3.1-18.6,4.1l-0.6-0.5c-1.8-6-3.3-12.2-4.8-18.3c12.8-3.5,25.7-6.5,38.4-10.2
					c-3.1-10.2-5.3-20.6-8.3-30.8c6-1.4,11.8-3.3,17.8-4.4c3.4,10,5,20.5,8.5,30.5c5-1,10-2.4,15-3.7c-0.8-5.7-3-11.2-4-16.9
					C343.9,124.9,341.4,120.3,341.4,115.3z M348.9,168.4c-3.4,1.1-6.9,1.6-10.3,2.6c3.7,12.6,6.6,25.5,10.2,38.2
					c6.6-1,12.8-3.4,19.3-4.6c7.1-1.9,14.4-5.4,18.1-11.9c5-6.2,4.2-16.3-1.9-21.5c-4.4-5-11.5-6.5-17.8-6.2
					C360.4,164.7,354.8,167.5,348.9,168.4z M353.3,228.1c3.7,13.7,7.6,27.3,10.5,41.1c4.5-1,9-2.2,13.5-3.4c10.3-2.5,21.7-4.7,29-13
					c5.7-5.1,8.3-14.1,4.6-21.1c-2.4-5.6-8.2-8.6-13.7-10.3c-4.6-1.9-9.6-1.4-14.4-1.1C372.9,222.8,362.9,224.8,353.3,228.1z"/>
			</g>
			<g class="st3">
				<path class="st4" d="M146.1,437c4.9,0,9.8,0,14.7,0c0,9.3,0.1,18.6-0.1,27.8c7.4-8.3,22.1-7.6,28.8,1.1c5.6,7,6.4,16.5,6,25.1
					c-0.4,7.7-2.7,16-9,21c-7.8,6.1-20.1,5-26.6-2.6c-0.2,1.8-0.4,3.6-0.6,5.5c-4.4,0-8.8,0-13.2,0C146.1,489,146.1,463,146.1,437z
					 M166.9,471.4c-3.3,0.9-6.6,3.9-6.1,7.6c0.1,6.5-0.2,13.1,0.1,19.6c2.2,5.2,8.9,6.7,13.8,4.8c4-1.7,5.6-6.3,5.9-10.4
					c0.4-5.8,0.8-12-1.8-17.4C176.7,471.4,171.2,470.1,166.9,471.4z"/>
			</g>
			<path class="st5" d="M63.8,438.4c5.2-2.2,12.4,1.5,11.6,7.6c-0.2,7-10.1,9.3-14.5,4.6C57.5,447,58.9,439.9,63.8,438.4z"/>
			<path class="st5" d="M209.8,438.4c5.2-2.2,12.4,1.5,11.6,7.6c-0.2,7-10.1,9.3-14.5,4.6C203.4,447,204.9,439.9,209.8,438.4z"/>
			<path class="st5" d="M385.8,438.4c5.2-2.2,12.4,1.5,11.6,7.6c-0.2,7-10.1,9.3-14.4,4.6C379.5,447,380.9,439.9,385.8,438.4z"/>
			<path class="st5" d="M27,446c4.9,0,9.8,0,14.7,0c0,4.7,0,9.3,0,14c3.2,0,6.3,0,9.5,0c0,3.6,0,7.1,0,10.7c-3.2,0-6.3,0-9.4,0
				c0,9.1,0,18.2,0,27.3c0,1.9,0.2,4.5,2.4,5.4c2.4,0.9,5.1,0.4,7.6,0.3c0,3.7,0,7.4,0,11.1c-6.1,1.5-13.1,2.1-18.7-1.3
				c-4.5-2.9-5.9-8.5-5.9-13.5c0-9.7,0-19.4,0-29.2c-2.7-0.1-5.3-0.1-8,0c-0.1-3.6,0-7.2,0-10.8c2.7,0,5.4,0,8,0
				C27,455.3,27,450.6,27,446z"/>
			<path class="st5" d="M236,446c4.9,0,9.8,0,14.7,0c0,4.7,0,9.3,0,14c3.1,0,6.3,0,9.5,0c-0.1,3.6,0,7.1,0,10.7c-3.1,0-6.3,0-9.4,0
				c0,9.1,0,18.2,0,27.3c0,1.9,0.2,4.5,2.4,5.4c2.4,0.9,5.1,0.4,7.6,0.3c0,3.7,0,7.4-0.1,11.1c-6.1,1.5-13.1,2.1-18.7-1.3
				c-4.5-2.9-5.9-8.5-5.9-13.5c0-9.7,0-19.4,0-29.2c-2.7-0.1-5.3-0.1-8,0c-0.1-3.6-0.1-7.2,0-10.8c2.7,0,5.4,0,8,0
				C236,455.3,236,450.6,236,446z"/>
			<g class="st3">
				<path class="st4" d="M101.2,465.1c7.1-8.1,21.1-8.2,28.4-0.2c5.9,6.5,7.2,15.7,7,24.1c-0.1,8.1-2.4,16.8-8.6,22.4
					c-7.3,6.5-19.3,6-26.2-0.9c0,8.5,0,16.9,0,25.4c-4.9,0-9.8,0-14.7,0c0-25.3,0-50.7,0-76c4.5,0,9.1,0,13.6,0
					C100.9,461.7,101.1,463.4,101.2,465.1z M106.9,471.6c-2.6,1-5.5,3.3-5.1,6.4c0.1,6.9-0.1,13.8,0.1,20.6
					c2.2,5.5,9.7,6.9,14.5,4.2c3.9-2.6,4.9-7.5,5.3-11.8c0.4-5.7,0.3-12.2-3.3-16.9C115.7,470.7,110.8,470.3,106.9,471.6z"/>
			</g>
			<path class="st5" d="M270.6,469.1c7.4-11.4,24.7-13.3,35.4-5.6c5.3,3.9,7.9,10.5,8,16.9c-4.6,0.1-9.1,0-13.7,0
				c-0.5-2.4-0.9-4.9-2.7-6.7c-4.2-4.8-13.4-3.4-15.6,2.7s-1.9,12.8-0.9,19.1c0.6,4.6,4.5,8.8,9.3,8.6c4.9,0.6,9.6-3.2,9.9-8.1
				c4.5,0,9.1,0,13.6,0c-0.2,5.8-2.9,11.5-7.5,15c-7.5,5.8-18.2,6.3-26.7,2.7c-7.7-3.4-12.5-11.4-13.5-19.6
				C265.3,485.6,265.7,476.4,270.6,469.1z"/>
			<g class="st3">
				<path class="st4" d="M341.8,459.3c8.2-1.1,17.3,1.1,23,7.4c6.3,6.7,7.7,16.5,6.9,25.3c-0.6,7.4-4,14.7-10,19.2
					c-7,5.2-16.6,5.9-24.8,3.5c-8.4-2.5-14.6-10.2-16.2-18.7c-1.7-8.9-1.1-18.9,4.1-26.6C328.6,463.7,335.1,460.1,341.8,459.3z
					 M341.9,471.6c-6.1,2.4-7.3,9.7-7.4,15.5c0,4.9,0.5,10.3,3.8,14.1c4,4.3,12,4.1,15.6-0.7c2.5-3.3,3-7.5,3.2-11.5
					c0.1-4.9-0.3-10.3-3.3-14.3C351.2,471,346,470.1,341.9,471.6z"/>
			</g>
			<path class="st5" d="M423.1,466.1c3-2.9,6.4-5.7,10.6-6.5c6.1-1.3,13.5-0.7,17.9,4.3c4,4.7,4.6,11.2,4.6,17.1c0,11.3,0,22.7,0,34
				c-4.9,0-9.8,0-14.7,0c0-11.7,0-23.4,0-35c0-2.8-0.5-6.2-3.2-7.8c-5-2.5-12.1-1.3-14.8,4c-0.3,12.9,0,25.9-0.1,38.9
				c-4.9,0-9.8,0-14.7,0c0-18.3,0-36.6,0-54.9c4.6,0,9.2,0,13.8,0C422.8,462,422.9,464.1,423.1,466.1z"/>
			<path class="st5" d="M59.9,460c4.9-0.1,9.8,0,14.8,0c0,18.3,0,36.7,0,55c-4.9,0-9.8,0-14.8,0C59.9,496.6,59.9,478.3,59.9,460z"/>
			<path class="st5" d="M205.9,460c4.9-0.1,9.8,0,14.8,0c0,18.3,0,36.7,0,55c-4.9,0-9.8,0-14.8,0C205.9,496.6,205.9,478.3,205.9,460
				z"/>
			<path class="st5" d="M381.9,460c4.9-0.1,9.8,0,14.8,0c0,18.3,0,36.7,0,55c-4.9,0-9.8,0-14.8,0C381.9,496.7,381.9,478.3,381.9,460
				z"/>
			<path class="st5" d="M474,500.6c5.1-1.5,11.2,2.6,10.5,8.2c-0.2,7-10,9.5-14.5,4.8C465.9,509.5,468.2,501.6,474,500.6z"/>
		</g>
	</g>
	<g id="Layer_2">
		<path id="Shape-Copy-3_1_" class="st4" d="M438.7,205.3c-6.4-5-14.6-7.4-24.6-7.2c10.6-9.2,13.4-21.2,8.1-35.6
			c-1.9-5.3-4.4-9.6-8-13c-3.5-3.4-7.6-5.7-12.4-6.9c-4.8-1.3-9.9-2-15.3-2.1s-11.1,0.5-17.8,1.6l-7.7-30.9l-18.9,4.7l7.5,29.9
			c-3.3,0.8-8.3,2.1-14.8,3.9l-7.5-30.1l-18.9,4.7l7.7,30.9c-2.7,0.7-6.5,1.8-11.9,3.2l-26.1,6.3l5,20.1l13.5-3.4
			c6.2-1.5,10.5,0.2,12.9,5.6l21.1,84.5c0.5,4.4-1.5,6.9-5.6,8l-13.5,3.4l1.7,23.3l24.5-6.1c1.5-0.4,3.9-1,6.8-1.7s5.2-1.3,6.6-1.6
			l7.9,31.5l18.9-4.7l-7.7-30.9c3.5-0.9,8.5-1.9,14.9-3.5l7.7,30.7l18.9-4.7l-7.8-31.3c6.7-2.1,12.3-4.1,17.3-6.4s9.6-4.9,13.8-8
			c4.3-3.1,7.6-6.4,10.2-10.1c2.6-3.7,4.1-8,5.2-12.8c1-5,1.1-10.3,0.2-16.3C449,218.5,445.1,210.1,438.7,205.3z M340.8,171.8
			c0.6-0.1,2.1-0.5,4.8-1.2c2.7-0.7,4.8-1.2,6.5-1.8c1.7-0.4,4.1-1,7.2-1.4c2.9-0.5,5.5-0.8,7.8-0.9c2.2-0.1,4.5,0.1,7.2,0.2
			c2.7,0.3,5,1,6.7,2c1.9,1,3.5,2.4,5,4.3c1.5,1.9,2.7,4.1,3.3,6.8c0.6,2.3,0.7,4.5,0.4,6.5c-0.3,2.1-1.1,4-2.1,5.5
			c-1.2,1.7-2.3,3-3.6,4.4c-1.3,1.4-3,2.6-5.4,3.8c-2.2,1.2-4.2,2.1-6,2.9c-1.6,0.8-3.9,1.6-6.6,2.3c-2.7,0.9-4.8,1.4-6.1,1.7
			c-1.4,0.3-3.3,0.8-5.8,1.4c-2.3,0.6-3.9,1-4.2,1.1L340.8,171.8L340.8,171.8L340.8,171.8z M413.1,242.2c-0.3,2.1-0.9,3.9-1.9,5.6
			c-0.8,1.6-2.2,3.4-3.9,4.9c-1.6,1.6-3.4,2.9-5.2,4c-1.8,1.1-3.8,2.2-6.3,3.4c-2.6,1.3-4.8,2-6.7,2.7s-4.3,1.5-7,2.4
			s-5,1.4-6.5,1.8s-3.5,0.9-5.8,1.4c-2.3,0.6-3.9,1-4.4,1.1l-10.3-41.3c0.6-0.1,2.5-0.6,5.7-1.6c3.3-0.8,5.7-1.6,7.9-2.2
			c2.1-0.5,4.9-1,8.6-1.7s6.7-1.1,9.4-1.1c2.7,0,5.5-0.1,8.7,0.3c3.1,0.2,5.8,1,7.9,1.9c2.1,1.1,4.1,2.5,5.8,4.5s3.1,4.3,3.9,7.4
			C413.3,237.9,413.4,240.1,413.1,242.2z"/>
	</g>
</g>
<g id="Layer_2_1_">
	<g>
		<path class="st4" d="M146.1,437c4.9,0,9.8,0,14.7,0c0,9.3,0.1,18.6-0.1,27.8c7.4-8.3,22.1-7.6,28.8,1.1c5.6,7,6.4,16.5,6,25.1
			c-0.4,7.7-2.7,16-9,21c-7.8,6.1-20.1,5-26.6-2.6c-0.2,1.8-0.4,3.6-0.6,5.5c-4.4,0-8.8,0-13.2,0C146.1,489,146.1,463,146.1,437z
			 M166.9,471.4c-3.3,0.9-6.6,3.9-6.1,7.6c0.1,6.5-0.2,13.1,0.1,19.6c2.2,5.2,8.9,6.7,13.8,4.8c4-1.7,5.6-6.3,5.9-10.4
			c0.4-5.8,0.8-12-1.8-17.4C176.7,471.4,171.2,470.1,166.9,471.4z"/>
	</g>
	<path class="st4" d="M63.8,438.4c5.2-2.2,12.4,1.5,11.6,7.6c-0.2,7-10.1,9.3-14.5,4.6C57.5,447,58.9,439.9,63.8,438.4z"/>
	<path class="st4" d="M209.8,438.4c5.2-2.2,12.4,1.5,11.6,7.6c-0.2,7-10.1,9.3-14.5,4.6C203.4,447,204.9,439.9,209.8,438.4z"/>
	<path class="st4" d="M385.8,438.4c5.2-2.2,12.4,1.5,11.6,7.6c-0.2,7-10.1,9.3-14.4,4.6C379.5,447,380.9,439.9,385.8,438.4z"/>
	<path class="st4" d="M27,446c4.9,0,9.8,0,14.7,0c0,4.7,0,9.3,0,14c3.2,0,6.3,0,9.5,0c0,3.6,0,7.1,0,10.7c-3.2,0-6.3,0-9.4,0
		c0,9.1,0,18.2,0,27.3c0,1.9,0.2,4.5,2.4,5.4c2.4,0.9,5.1,0.4,7.6,0.3c0,3.7,0,7.4,0,11.1c-6.1,1.5-13.1,2.1-18.7-1.3
		c-4.5-2.9-5.9-8.5-5.9-13.5c0-9.7,0-19.4,0-29.2c-2.7-0.1-5.3-0.1-8,0c-0.1-3.6,0-7.2,0-10.8c2.7,0,5.4,0,8,0
		C27,455.3,27,450.6,27,446z"/>
	<path class="st4" d="M236,446c4.9,0,9.8,0,14.7,0c0,4.7,0,9.3,0,14c3.1,0,6.3,0,9.5,0c-0.1,3.6,0,7.1,0,10.7c-3.1,0-6.3,0-9.4,0
		c0,9.1,0,18.2,0,27.3c0,1.9,0.2,4.5,2.4,5.4c2.4,0.9,5.1,0.4,7.6,0.3c0,3.7,0,7.4-0.1,11.1c-6.1,1.5-13.1,2.1-18.7-1.3
		c-4.5-2.9-5.9-8.5-5.9-13.5c0-9.7,0-19.4,0-29.2c-2.7-0.1-5.3-0.1-8,0c-0.1-3.6-0.1-7.2,0-10.8c2.7,0,5.4,0,8,0
		C236,455.3,236,450.6,236,446z"/>
	<g>
		<path class="st4" d="M101.2,465.1c7.1-8.1,21.1-8.2,28.4-0.2c5.9,6.5,7.2,15.7,7,24.1c-0.1,8.1-2.4,16.8-8.6,22.4
			c-7.3,6.5-19.3,6-26.2-0.9c0,8.5,0,16.9,0,25.4c-4.9,0-9.8,0-14.7,0c0-25.3,0-50.7,0-76c4.5,0,9.1,0,13.6,0
			C100.9,461.7,101.1,463.4,101.2,465.1z M106.9,471.6c-2.6,1-5.5,3.3-5.1,6.4c0.1,6.9-0.1,13.8,0.1,20.6c2.2,5.5,9.7,6.9,14.5,4.2
			c3.9-2.6,4.9-7.5,5.3-11.8c0.4-5.7,0.3-12.2-3.3-16.9C115.7,470.7,110.8,470.3,106.9,471.6z"/>
	</g>
	<path class="st4" d="M270.6,469.1c7.4-11.4,24.7-13.3,35.4-5.6c5.3,3.9,7.9,10.5,8,16.9c-4.6,0.1-9.1,0-13.7,0
		c-0.5-2.4-0.9-4.9-2.7-6.7c-4.2-4.8-13.4-3.4-15.6,2.7c-2.2,6.1-1.9,12.8-0.9,19.1c0.6,4.6,4.5,8.8,9.3,8.6
		c4.9,0.6,9.6-3.2,9.9-8.1c4.5,0,9.1,0,13.6,0c-0.2,5.8-2.9,11.5-7.5,15c-7.5,5.8-18.2,6.3-26.7,2.7c-7.7-3.4-12.5-11.4-13.5-19.6
		C265.3,485.6,265.7,476.4,270.6,469.1z"/>
	<g>
		<path class="st4" d="M341.8,459.3c8.2-1.1,17.3,1.1,23,7.4c6.3,6.7,7.7,16.5,6.9,25.3c-0.6,7.4-4,14.7-10,19.2
			c-7,5.2-16.6,5.9-24.8,3.5c-8.4-2.5-14.6-10.2-16.2-18.7c-1.7-8.9-1.1-18.9,4.1-26.6C328.6,463.7,335.1,460.1,341.8,459.3z
			 M341.9,471.6c-6.1,2.4-7.3,9.7-7.4,15.5c0,4.9,0.5,10.3,3.8,14.1c4,4.3,12,4.1,15.6-0.7c2.5-3.3,3-7.5,3.2-11.5
			c0.1-4.9-0.3-10.3-3.3-14.3C351.2,471,346,470.1,341.9,471.6z"/>
	</g>
	<path class="st4" d="M423.1,466.1c3-2.9,6.4-5.7,10.6-6.5c6.1-1.3,13.5-0.7,17.9,4.3c4,4.7,4.6,11.2,4.6,17.1c0,11.3,0,22.7,0,34
		c-4.9,0-9.8,0-14.7,0c0-11.7,0-23.4,0-35c0-2.8-0.5-6.2-3.2-7.8c-5-2.5-12.1-1.3-14.8,4c-0.3,12.9,0,25.9-0.1,38.9
		c-4.9,0-9.8,0-14.7,0c0-18.3,0-36.6,0-54.9c4.6,0,9.2,0,13.8,0C422.8,462,422.9,464.1,423.1,466.1z"/>
	<path class="st4" d="M59.9,460c4.9-0.1,9.8,0,14.8,0c0,18.3,0,36.7,0,55c-4.9,0-9.8,0-14.8,0C59.9,496.6,59.9,478.3,59.9,460z"/>
	<path class="st4" d="M205.9,460c4.9-0.1,9.8,0,14.8,0c0,18.3,0,36.7,0,55c-4.9,0-9.8,0-14.8,0C205.9,496.6,205.9,478.3,205.9,460z"
		/>
	<path class="st4" d="M381.9,460c4.9-0.1,9.8,0,14.8,0c0,18.3,0,36.7,0,55c-4.9,0-9.8,0-14.8,0C381.9,496.7,381.9,478.3,381.9,460z"
		/>
	<path class="st4" d="M474,500.6c5.1-1.5,11.2,2.6,10.5,8.2c-0.2,7-10,9.5-14.5,4.8C465.9,509.5,468.2,501.6,474,500.6z"/>
</g>
</svg>
